<svg width="22" height="22" viewBox="0 0 22 22" fill="none" xmlns="http://www.w3.org/2000/svg">
<path d="M17.6644 4.88522C16.4453 4.31689 15.1253 3.90439 13.7503 3.66606C13.7382 3.66567 13.7262 3.66793 13.7151 3.67269C13.704 3.67744 13.6941 3.68456 13.6861 3.69356C13.5211 3.99606 13.3286 4.39022 13.2003 4.69272C11.7419 4.47272 10.2587 4.47272 8.80027 4.69272C8.67194 4.38106 8.47944 3.99606 8.30527 3.69356C8.2961 3.67522 8.2686 3.66606 8.2411 3.66606C6.8661 3.90439 5.55527 4.31689 4.32694 4.88522C4.31777 4.88522 4.3086 4.89439 4.29944 4.90356C1.8061 8.63439 1.1186 12.2644 1.45777 15.8577C1.45777 15.8761 1.46694 15.8944 1.48527 15.9036C3.13527 17.1136 4.7211 17.8469 6.2886 18.3327C6.3161 18.3419 6.3436 18.3327 6.35277 18.3144C6.71944 17.8102 7.04944 17.2786 7.3336 16.7194C7.35194 16.6827 7.3336 16.6461 7.29694 16.6369C6.77444 16.4352 6.27944 16.1969 5.7936 15.9219C5.75694 15.9036 5.75694 15.8486 5.78444 15.8211C5.88527 15.7477 5.9861 15.6652 6.08694 15.5919C6.10527 15.5736 6.13277 15.5736 6.1511 15.5827C9.30444 17.0219 12.7053 17.0219 15.8219 15.5827C15.8403 15.5736 15.8678 15.5736 15.8861 15.5919C15.9869 15.6744 16.0878 15.7477 16.1886 15.8302C16.2253 15.8577 16.2253 15.9127 16.1794 15.9311C15.7028 16.2152 15.1986 16.4444 14.6761 16.6461C14.6394 16.6552 14.6303 16.7011 14.6394 16.7286C14.9328 17.2877 15.2628 17.8194 15.6203 18.3236C15.6478 18.3327 15.6753 18.3419 15.7028 18.3327C17.2794 17.8469 18.8653 17.1136 20.5153 15.9036C20.5336 15.8944 20.5428 15.8761 20.5428 15.8577C20.9461 11.7052 19.8736 8.10272 17.7011 4.90356C17.6919 4.89439 17.6828 4.88522 17.6644 4.88522ZM7.81027 13.6669C6.8661 13.6669 6.07777 12.7961 6.07777 11.7236C6.07777 10.6511 6.84777 9.78022 7.81027 9.78022C8.78194 9.78022 9.55194 10.6602 9.54277 11.7236C9.54277 12.7961 8.77277 13.6669 7.81027 13.6669ZM14.1994 13.6669C13.2553 13.6669 12.4669 12.7961 12.4669 11.7236C12.4669 10.6511 13.2369 9.78022 14.1994 9.78022C15.1711 9.78022 15.9411 10.6602 15.9319 11.7236C15.9319 12.7961 15.1711 13.6669 14.1994 13.6669Z" fill="white"/>
</svg>
