<svg width="31" height="31" viewBox="0 0 31 31" fill="none" xmlns="http://www.w3.org/2000/svg">
<g clip-path="url(#clip0_906_3059)">
<path d="M23.1728 23.1719C20.9648 24.8549 18.2763 25.7873 15.5003 25.8327C6.45866 25.8327 1.29199 15.4994 1.29199 15.4994C2.89868 12.5052 5.12713 9.88917 7.82783 7.82688M12.7878 5.47605C13.6769 5.26793 14.5872 5.1639 15.5003 5.16605C24.542 5.16605 29.7087 15.4994 29.7087 15.4994C28.9246 16.9662 27.9895 18.3472 26.9187 19.6198M18.2387 18.2377C17.8839 18.6184 17.4561 18.9238 16.9808 19.1356C16.5054 19.3474 15.9923 19.4613 15.472 19.4704C14.9517 19.4796 14.4349 19.3839 13.9524 19.189C13.4699 18.9941 13.0316 18.704 12.6636 18.3361C12.2957 17.9681 12.0056 17.5298 11.8107 17.0473C11.6158 16.5648 11.5201 16.048 11.5293 15.5277C11.5384 15.0074 11.6523 14.4943 11.8641 14.0189C12.0759 13.5436 12.3813 13.1158 12.762 12.761" stroke="black" stroke-width="2" stroke-linecap="round" stroke-linejoin="round"/>
<path d="M1.29199 1.29102L29.7087 29.7077" stroke="black" stroke-width="2" stroke-linecap="round" stroke-linejoin="round"/>
</g>
<defs>
<clipPath id="clip0_906_3059">
<rect width="31" height="31" fill="white"/>
</clipPath>
</defs>
</svg>
