<svg width="40" height="39" viewBox="0 0 40 39" fill="none" xmlns="http://www.w3.org/2000/svg">
<mask id="mask0_1381_2327" style="mask-type:alpha" maskUnits="userSpaceOnUse" x="0" y="0" width="40" height="39">
<path d="M2.51308 17.4842C3.50514 8.22157 11.8177 1.51738 21.0803 2.50945L37.8513 4.3057L36.055 21.0767C35.063 30.3393 26.7504 37.0435 17.4878 36.0514C8.2252 35.0593 1.52101 26.7468 2.51308 17.4842Z" fill="white" stroke="white" stroke-width="4" stroke-linecap="round" stroke-linejoin="round"/>
<path d="M27.1309 25.209L12.037 23.5924M27.8494 18.5006L12.7555 16.884M28.5679 11.7922L20.1824 10.8941" stroke="black" stroke-width="4" stroke-linecap="round" stroke-linejoin="round"/>
</mask>
<g mask="url(#mask0_1381_2327)">
<path d="M37.2539 41.5605L-2.99645 37.2496L1.31455 -3.0008L41.5649 1.31019L37.2539 41.5605Z" fill="black"/>
</g>
<path d="M20.7112 27.343L20.5683 24.8471L18.0723 24.99L18.2153 27.4859L20.7112 27.343ZM24.9456 15.5816C24.1422 14.1452 22.5663 13.2138 20.8092 13.3144L16.5163 13.5603C14.7591 13.6609 13.2999 14.7662 12.6657 16.2849C12.4005 16.9011 12.2785 17.5692 12.3186 18.268L14.8145 18.1251C14.7527 17.0469 15.581 16.118 16.6592 16.0562L20.9522 15.8103C22.0304 15.7486 22.9593 16.5768 23.021 17.6551C23.0828 18.7333 22.2545 19.6622 21.1763 19.7239L17.7819 19.9183L18.0129 23.9517L20.5088 23.8088L20.4196 22.2513L21.3181 22.1999C23.7741 22.0592 25.6565 19.9481 25.5158 17.4922C25.4758 16.7933 25.2772 16.1236 24.9433 15.5417L24.9456 15.5816Z" fill="white"/>
</svg>
