<svg width="22" height="22" viewBox="0 0 22 22" fill="none" xmlns="http://www.w3.org/2000/svg">
<path d="M7.15065 1.83398H14.8507C17.784 1.83398 20.1673 4.21732 20.1673 7.15065V14.8507C20.1673 16.2607 19.6072 17.613 18.6101 18.6101C17.613 19.6072 16.2607 20.1673 14.8507 20.1673H7.15065C4.21732 20.1673 1.83398 17.784 1.83398 14.8507V7.15065C1.83398 5.74058 2.39413 4.38827 3.3912 3.3912C4.38827 2.39413 5.74058 1.83398 7.15065 1.83398ZM6.96732 3.66732C6.0921 3.66732 5.25274 4.015 4.63387 4.63387C4.015 5.25274 3.66732 6.0921 3.66732 6.96732V15.034C3.66732 16.8582 5.14315 18.334 6.96732 18.334H15.034C15.9092 18.334 16.7486 17.9863 17.3674 17.3674C17.9863 16.7486 18.334 15.9092 18.334 15.034V6.96732C18.334 5.14315 16.8582 3.66732 15.034 3.66732H6.96732ZM15.8132 5.04232C16.117 5.04232 16.4085 5.16304 16.6234 5.37792C16.8383 5.59281 16.959 5.88426 16.959 6.18815C16.959 6.49204 16.8383 6.78349 16.6234 6.99838C16.4085 7.21326 16.117 7.33398 15.8132 7.33398C15.5093 7.33398 15.2178 7.21326 15.0029 6.99838C14.788 6.78349 14.6673 6.49204 14.6673 6.18815C14.6673 5.88426 14.788 5.59281 15.0029 5.37792C15.2178 5.16304 15.5093 5.04232 15.8132 5.04232ZM11.0007 6.41732C12.2162 6.41732 13.382 6.9002 14.2416 7.75974C15.1011 8.61929 15.584 9.78508 15.584 11.0007C15.584 12.2162 15.1011 13.382 14.2416 14.2416C13.382 15.1011 12.2162 15.584 11.0007 15.584C9.78508 15.584 8.61929 15.1011 7.75974 14.2416C6.9002 13.382 6.41732 12.2162 6.41732 11.0007C6.41732 9.78508 6.9002 8.61929 7.75974 7.75974C8.61929 6.9002 9.78508 6.41732 11.0007 6.41732ZM11.0007 8.25065C10.2713 8.25065 9.57183 8.54038 9.05611 9.05611C8.54038 9.57183 8.25065 10.2713 8.25065 11.0007C8.25065 11.73 8.54038 12.4295 9.05611 12.9452C9.57183 13.4609 10.2713 13.7507 11.0007 13.7507C11.73 13.7507 12.4295 13.4609 12.9452 12.9452C13.4609 12.4295 13.7507 11.73 13.7507 11.0007C13.7507 10.2713 13.4609 9.57183 12.9452 9.05611C12.4295 8.54038 11.73 8.25065 11.0007 8.25065Z" fill="white"/>
</svg>
