<svg width="17" height="17" viewBox="0 0 17 17" fill="none" xmlns="http://www.w3.org/2000/svg">
<g clip-path="url(#clip0_690_3153)">
<path d="M6.37435 15.5827C6.76555 15.5827 7.08268 15.2656 7.08268 14.8743C7.08268 14.4831 6.76555 14.166 6.37435 14.166C5.98315 14.166 5.66602 14.4831 5.66602 14.8743C5.66602 15.2656 5.98315 15.5827 6.37435 15.5827Z" stroke="#0D0146" stroke-width="1.5" stroke-linecap="round" stroke-linejoin="round"/>
<path d="M14.1673 15.5827C14.5585 15.5827 14.8757 15.2656 14.8757 14.8743C14.8757 14.4831 14.5585 14.166 14.1673 14.166C13.7761 14.166 13.459 14.4831 13.459 14.8743C13.459 15.2656 13.7761 15.5827 14.1673 15.5827Z" stroke="#0D0146" stroke-width="1.5" stroke-linecap="round" stroke-linejoin="round"/>
<path d="M0.708984 0.708984H3.54232L5.44065 10.1936C5.50542 10.5197 5.68284 10.8126 5.94183 11.0211C6.20082 11.2296 6.5249 11.3404 6.85732 11.334H13.7423C14.0747 11.3404 14.3988 11.2296 14.6578 11.0211C14.9168 10.8126 15.0942 10.5197 15.159 10.1936L16.2923 4.25065H4.25065" stroke="#0D0146" stroke-width="1.8" stroke-linecap="round" stroke-linejoin="round"/>
</g>
<defs>
<clipPath id="clip0_690_3153">
<rect width="17" height="17" fill="white"/>
</clipPath>
</defs>
</svg>
