<svg width="23" height="23" viewBox="0 0 23 23" fill="none" xmlns="http://www.w3.org/2000/svg">
<path d="M15.908 5.5775C15.908 5.5775 16.3967 6.05667 15.908 5.5775C15.2529 4.82964 14.8919 3.86921 14.8922 2.875H11.9309V14.7583C11.9081 15.4014 11.6366 16.0105 11.1736 16.4574C10.7106 16.9043 10.0923 17.1541 9.44883 17.1542C8.088 17.1542 6.95716 16.0425 6.95716 14.6625C6.95716 13.0142 8.548 11.7779 10.1867 12.2858V9.2575C6.8805 8.81667 3.98633 11.385 3.98633 14.6625C3.98633 17.8538 6.63133 20.125 9.43925 20.125C12.4484 20.125 14.8922 17.6812 14.8922 14.6625V8.63458C16.093 9.49694 17.5346 9.95962 19.013 9.95708V6.99583C19.013 6.99583 17.2113 7.08208 15.908 5.5775Z" fill="white"/>
</svg>
