<svg width="21" height="20" viewBox="0 0 21 20" fill="none" xmlns="http://www.w3.org/2000/svg">
<path d="M19.6527 5.00065C18.9789 5.29232 18.2527 5.48398 17.5002 5.57565C18.2702 5.13398 18.8652 4.43398 19.1452 3.59232C18.4189 4.00898 17.6139 4.30065 16.7652 4.46732C16.0739 3.75065 15.1027 3.33398 14.0002 3.33398C11.9439 3.33398 10.2639 4.93398 10.2639 6.90898C10.2639 7.19232 10.2989 7.46732 10.3602 7.72565C7.24516 7.57565 4.47141 6.15065 2.62516 3.99232C2.30141 4.51732 2.11766 5.13398 2.11766 5.78398C2.11766 7.02565 2.77391 8.12565 3.78891 8.75065C3.16766 8.75065 2.59016 8.58398 2.08266 8.33398V8.35898C2.08266 10.0923 3.37766 11.5423 5.09266 11.8673C4.54204 12.0108 3.96399 12.0308 3.40391 11.9257C3.64156 12.6361 4.107 13.2577 4.7348 13.7031C5.36259 14.1485 6.12117 14.3954 6.90391 14.409C5.57708 15.4094 3.9324 15.9501 2.24016 15.9423C1.94266 15.9423 1.64516 15.9257 1.34766 15.8923C3.01016 16.909 4.98766 17.5007 7.10516 17.5007C14.0002 17.5007 17.7889 12.0507 17.7889 7.32565C17.7889 7.16732 17.7889 7.01732 17.7802 6.85898C18.5152 6.35898 19.1452 5.72565 19.6527 5.00065Z" fill="white"/>
</svg>
